<?xml version="1.0" encoding="utf-8"?>
<!-- Generator: Adobe Illustrator 18.1.1, SVG Export Plug-In . SVG Version: 6.00 Build 0)  -->
<svg version="1.1" id="Layer_1" xmlns="http://www.w3.org/2000/svg" xmlns:xlink="http://www.w3.org/1999/xlink" x="0px" y="0px"
	 viewBox="0 0 1592 609.4" enable-background="new 0 0 1592 609.4" xml:space="preserve">
<path fill="#B62B2A" d="M1011.4,381.6c-18.5,0-35.6-3.5-51.3-10.4c-15.7-6.9-29.3-16.4-40.9-28.5c-11.6-12-20.6-26.3-27-42.9
	c-6.4-16.5-9.7-34.4-9.7-53.6c0-19.5,3.2-37.2,9.7-53.3c6.4-16.1,15.4-29.7,27-41.1c11.6-11.3,25.2-20.1,40.9-26.3
	c15.7-6.2,32.8-9.3,51.3-9.3h172.1l-28.3,46.3h-143.8c-11.9,0-22.9,2.1-33,6.4c-10.1,4.3-18.8,10.2-26.1,17.7
	c-7.3,7.5-13,16.5-17.2,27c-4.1,10.5-6.2,22-6.2,34.7c0,12.4,2.1,24,6.2,34.7c4.1,10.7,9.9,19.9,17.2,27.5
	c7.3,7.7,16,13.7,26.1,18.1c10.1,4.4,21.1,6.6,33,6.6h113.5v-69H1032l-26.8-39h166.4v154.4H1011.4z"/>
<g>
	<path fill="#333333" d="M344.7,449.1h4.5c0.8,0,1.2,0.4,1.2,1.1v24.6c0,2.8-0.8,4.9-2.3,6.4c-1.6,1.5-3.7,2.3-6.5,2.3h-5.9
		c-2.8,0-5-0.7-6.5-2.2c-1.5-1.5-2.3-3.7-2.3-6.5v-24.6c0-0.7,0.4-1.1,1.1-1.1h4.5c0.8,0,1.1,0.4,1.1,1.1v24.2c0,1.1,0.2,2,0.7,2.4
		c0.5,0.5,1.3,0.7,2.4,0.7h3.7c1.1,0,2-0.2,2.4-0.7c0.5-0.5,0.7-1.3,0.7-2.4v-24.2C343.6,449.5,343.9,449.1,344.7,449.1z"/>
	<path fill="#333333" d="M382,483.5h-4.5c-0.8,0-1.1-0.4-1.1-1.1v-32.2c0-0.7,0.4-1.1,1.1-1.1h4.5c0.8,0,1.1,0.4,1.1,1.1v15.3h0.1
		c0.3-0.9,0.8-2,1.7-3.3l8.1-11.9c0.5-0.7,1.2-1.1,2.1-1.1h5.2c0.4,0,0.6,0.1,0.7,0.3c0.1,0.2,0,0.5-0.3,0.9l-10.2,14.1l11.3,17.8
		c0.2,0.4,0.3,0.8,0.1,1c-0.2,0.2-0.5,0.3-1,0.3h-3.9c-1.2,0-2.1-0.4-2.5-1.1l-8.2-13.1l-3.4,4v9.2
		C383.1,483.1,382.7,483.5,382,483.5z"/>
	<path fill="#333333" d="M431.1,483.5h-4.5c-0.8,0-1.1-0.4-1.1-1.1v-32.2c0-0.7,0.4-1.1,1.1-1.1h12.7c2.8,0,5,0.8,6.5,2.3
		c1.6,1.5,2.4,3.7,2.4,6.5v4.2c0,4-1.6,6.7-4.8,8v0.2l5.7,11.9c0.3,0.9,0,1.3-0.9,1.3h-4.3c-0.6,0-1.1-0.1-1.4-0.2
		c-0.3-0.1-0.5-0.4-0.7-0.9l-5.4-11.6h-3.6c-0.4,0-0.6,0.2-0.6,0.6v11C432.2,483.1,431.9,483.5,431.1,483.5z M432.8,465.4h5.2
		c1.1,0,2-0.2,2.5-0.7c0.5-0.5,0.8-1.3,0.8-2.3v-4.2c0-1.1-0.3-1.9-0.8-2.4c-0.5-0.5-1.4-0.7-2.5-0.7h-5.2c-0.4,0-0.6,0.2-0.6,0.6
		v9.2C432.2,465.2,432.4,465.4,432.8,465.4z"/>
	<path fill="#333333" d="M477.6,483.5h-5.1c-0.6,0-0.9-0.4-0.6-1.1l8.5-32.2c0.2-0.7,0.8-1.1,1.6-1.1h7.1c0.9,0,1.4,0.4,1.6,1.1
		l8.5,32.2c0.2,0.7,0,1.1-0.6,1.1h-5.1c-0.4,0-0.7-0.1-0.8-0.2c-0.1-0.2-0.3-0.5-0.3-0.9l-1.5-5.9h-10.4l-1.5,5.9
		c-0.1,0.4-0.2,0.7-0.3,0.9C478.2,483.4,477.9,483.5,477.6,483.5z M485.3,455.6l-3.9,15.5h7.9l-3.9-15.5H485.3z"/>
	<path fill="#333333" d="M530.1,450.2v32.2c0,0.7-0.4,1.1-1.1,1.1h-4.5c-0.8,0-1.1-0.4-1.1-1.1v-32.2c0-0.7,0.4-1.1,1.1-1.1h4.5
		C529.7,449.1,530.1,449.5,530.1,450.2z"/>
	<path fill="#333333" d="M562.2,483.5h-4.4c-0.8,0-1.1-0.4-1.1-1.1v-32.2c0-0.7,0.4-1.1,1.1-1.1h4c0.8,0,1.2,0.3,1.5,0.7l10.8,20.3
		h0.2v-19.9c0-0.7,0.4-1.1,1.1-1.1h4.4c0.7,0,1.1,0.4,1.1,1.1v32.2c0,0.7-0.4,1.1-1.1,1.1h-3.9c-0.8,0-1.4-0.4-1.7-1.1l-10.7-19.9
		h-0.2v19.9C563.3,483.1,562.9,483.5,562.2,483.5z"/>
	<path fill="#333333" d="M614.2,450.2v32.2c0,0.7-0.4,1.1-1.1,1.1h-4.5c-0.8,0-1.1-0.4-1.1-1.1v-32.2c0-0.7,0.4-1.1,1.1-1.1h4.5
		C613.9,449.1,614.2,449.5,614.2,450.2z"/>
	<path fill="#333333" d="M644.3,483.5h-5.1c-0.6,0-0.9-0.4-0.6-1.1l8.5-32.2c0.2-0.7,0.8-1.1,1.6-1.1h7.1c0.9,0,1.4,0.4,1.6,1.1
		l8.5,32.2c0.2,0.7,0,1.1-0.6,1.1H660c-0.4,0-0.7-0.1-0.8-0.2c-0.1-0.2-0.3-0.5-0.3-0.9l-1.5-5.9h-10.4l-1.5,5.9
		c-0.1,0.4-0.2,0.7-0.3,0.9C644.9,483.4,644.7,483.5,644.3,483.5z M652.1,455.6l-3.9,15.5h7.9l-3.9-15.5H652.1z"/>
	<path fill="#333333" d="M695.4,483.5h-4.4c-0.8,0-1.1-0.4-1.1-1.1v-32.2c0-0.7,0.4-1.1,1.1-1.1h4c0.8,0,1.2,0.3,1.5,0.7l10.8,20.3
		h0.2v-19.9c0-0.7,0.4-1.1,1.1-1.1h4.4c0.7,0,1.1,0.4,1.1,1.1v32.2c0,0.7-0.4,1.1-1.1,1.1h-3.9c-0.8,0-1.4-0.4-1.7-1.1l-10.7-19.9
		h-0.2v19.9C696.5,483.1,696.1,483.5,695.4,483.5z"/>
	<path fill="#333333" d="M777.1,483.5h-4.5c-0.8,0-1.1-0.4-1.1-1.1v-32.2c0-0.7,0.4-1.1,1.1-1.1h17.1c0.7,0,1.1,0.4,1.1,1.1v3.6
		c0,0.7-0.4,1.1-1.1,1.1h-10.8c-0.4,0-0.6,0.2-0.6,0.6v8.3c0,0.4,0.2,0.6,0.6,0.6h9.2c0.7,0,1.1,0.4,1.1,1.1v3.6
		c0,0.8-0.4,1.2-1.1,1.2h-9.2c-0.4,0-0.6,0.2-0.6,0.6v11.4C778.2,483.1,777.8,483.5,777.1,483.5z"/>
	<path fill="#333333" d="M833.5,483.5h-17.6c-0.8,0-1.1-0.4-1.1-1.1v-32.2c0-0.7,0.4-1.1,1.1-1.1h4.5c0.8,0,1.1,0.4,1.1,1.1V477
		c0,0.4,0.2,0.6,0.6,0.6h11.3c0.7,0,1.1,0.4,1.1,1.2v3.6C834.5,483.1,834.2,483.5,833.5,483.5z"/>
	<path fill="#333333" d="M876.7,483.5h-17.5c-0.8,0-1.1-0.4-1.1-1.1v-32.2c0-0.7,0.4-1.1,1.1-1.1h17.5c0.7,0,1.1,0.4,1.1,1.1v3.6
		c0,0.7-0.4,1.1-1.1,1.1h-11.2c-0.4,0-0.6,0.2-0.6,0.6v7c0,0.4,0.2,0.6,0.6,0.6h9.2c0.7,0,1.1,0.4,1.1,1.1v3.6
		c0,0.7-0.4,1.1-1.1,1.1h-9.2c-0.4,0-0.6,0.2-0.6,0.6v7.4c0,0.4,0.2,0.6,0.6,0.6h11.2c0.7,0,1.1,0.4,1.1,1.1v3.6
		C877.7,483.1,877.4,483.5,876.7,483.5z"/>
	<path fill="#333333" d="M921.6,483.5h-17.5c-0.8,0-1.1-0.4-1.1-1.1v-32.2c0-0.7,0.4-1.1,1.1-1.1h17.5c0.7,0,1.1,0.4,1.1,1.1v3.6
		c0,0.7-0.4,1.1-1.1,1.1h-11.2c-0.4,0-0.6,0.2-0.6,0.6v7c0,0.4,0.2,0.6,0.6,0.6h9.2c0.7,0,1.1,0.4,1.1,1.1v3.6
		c0,0.7-0.4,1.1-1.1,1.1h-9.2c-0.4,0-0.6,0.2-0.6,0.6v7.4c0,0.4,0.2,0.6,0.6,0.6h11.2c0.7,0,1.1,0.4,1.1,1.1v3.6
		C922.6,483.1,922.3,483.5,921.6,483.5z"/>
	<path fill="#333333" d="M958.5,483.5H954c-0.8,0-1.2-0.4-1.2-1.1v-26.8c0-0.4-0.2-0.6-0.6-0.6h-6.1c-0.7,0-1.1-0.4-1.1-1.1v-3.6
		c0-0.7,0.4-1.1,1.1-1.1h20.2c0.7,0,1.1,0.4,1.1,1.1v3.6c0,0.7-0.4,1.1-1.1,1.1h-6.1c-0.4,0-0.6,0.2-0.6,0.6v26.8
		C959.6,483.1,959.2,483.5,958.5,483.5z"/>
	<path fill="#333333" d="M1036,483.5h-5.8c-2.8,0-5-0.7-6.5-2.2c-1.5-1.5-2.3-3.7-2.3-6.5v-17c0-2.8,0.8-5,2.3-6.5
		c1.5-1.5,3.7-2.2,6.5-2.2h5.8c2.8,0,5,0.8,6.5,2.3c1.6,1.5,2.3,3.7,2.3,6.4v2.5c0,0.8-0.4,1.2-1.2,1.2h-4.5c-0.8,0-1.1-0.4-1.1-1.2
		v-2.2c0-1.1-0.2-2-0.7-2.4c-0.5-0.5-1.3-0.7-2.4-0.7h-3.6c-1.1,0-1.9,0.2-2.4,0.7c-0.5,0.5-0.7,1.3-0.7,2.4v16.3
		c0,1.1,0.2,2,0.7,2.4c0.5,0.5,1.3,0.7,2.4,0.7h3.6c1.1,0,2-0.2,2.4-0.7c0.5-0.5,0.7-1.3,0.7-2.4v-2.2c0-0.8,0.4-1.2,1.1-1.2h4.5
		c0.8,0,1.2,0.4,1.2,1.2v2.5c0,2.8-0.8,4.9-2.3,6.4C1040.9,482.7,1038.7,483.5,1036,483.5z"/>
	<path fill="#333333" d="M1084.2,483.5h-6c-2.8,0-5-0.7-6.5-2.2c-1.5-1.5-2.3-3.7-2.3-6.5v-17c0-2.8,0.8-5,2.3-6.5
		c1.5-1.5,3.7-2.2,6.5-2.2h6c2.8,0,5,0.7,6.5,2.2c1.5,1.5,2.3,3.7,2.3,6.5v17c0,2.8-0.8,5-2.3,6.5
		C1089.2,482.8,1087,483.5,1084.2,483.5z M1079.3,477.6h3.8c1.1,0,2-0.2,2.4-0.7c0.5-0.5,0.7-1.3,0.7-2.4v-16.3c0-1.1-0.2-2-0.7-2.4
		c-0.5-0.5-1.3-0.7-2.4-0.7h-3.8c-1.1,0-1.9,0.2-2.4,0.7c-0.5,0.5-0.7,1.3-0.7,2.4v16.3c0,1.1,0.2,2,0.7,2.4
		C1077.3,477.4,1078.1,477.6,1079.3,477.6z"/>
	<path fill="#333333" d="M1124.3,483.5h-4.4c-0.8,0-1.1-0.4-1.1-1.1v-32.2c0-0.7,0.4-1.1,1.1-1.1h4c0.8,0,1.2,0.3,1.5,0.7l10.8,20.3
		h0.2v-19.9c0-0.7,0.4-1.1,1.1-1.1h4.4c0.7,0,1.1,0.4,1.1,1.1v32.2c0,0.7-0.4,1.1-1.1,1.1h-3.9c-0.8,0-1.4-0.4-1.7-1.1l-10.7-19.9
		h-0.2v19.9C1125.4,483.1,1125,483.5,1124.3,483.5z"/>
	<path fill="#333333" d="M1179.9,483.5h-4.5c-0.8,0-1.2-0.4-1.2-1.1v-26.8c0-0.4-0.2-0.6-0.6-0.6h-6.1c-0.7,0-1.1-0.4-1.1-1.1v-3.6
		c0-0.7,0.4-1.1,1.1-1.1h20.2c0.7,0,1.1,0.4,1.1,1.1v3.6c0,0.7-0.4,1.1-1.1,1.1h-6.1c-0.4,0-0.6,0.2-0.6,0.6v26.8
		C1181,483.1,1180.7,483.5,1179.9,483.5z"/>
	<path fill="#333333" d="M1217.9,483.5h-4.5c-0.8,0-1.1-0.4-1.1-1.1v-32.2c0-0.7,0.4-1.1,1.1-1.1h12.7c2.8,0,5,0.8,6.5,2.3
		c1.6,1.5,2.4,3.7,2.4,6.5v4.2c0,4-1.6,6.7-4.8,8v0.2l5.7,11.9c0.3,0.9,0,1.3-0.9,1.3h-4.3c-0.6,0-1.1-0.1-1.4-0.2
		c-0.3-0.1-0.5-0.4-0.7-0.9l-5.4-11.6h-3.6c-0.4,0-0.6,0.2-0.6,0.6v11C1219,483.1,1218.7,483.5,1217.9,483.5z M1219.6,465.4h5.2
		c1.1,0,2-0.2,2.5-0.7c0.5-0.5,0.8-1.3,0.8-2.3v-4.2c0-1.1-0.3-1.9-0.8-2.4c-0.5-0.5-1.4-0.7-2.5-0.7h-5.2c-0.4,0-0.6,0.2-0.6,0.6
		v9.2C1219,465.2,1219.2,465.4,1219.6,465.4z"/>
	<path fill="#333333" d="M1275.1,483.5h-6c-2.8,0-5-0.7-6.5-2.2c-1.5-1.5-2.3-3.7-2.3-6.5v-17c0-2.8,0.8-5,2.3-6.5
		c1.5-1.5,3.7-2.2,6.5-2.2h6c2.8,0,5,0.7,6.5,2.2c1.5,1.5,2.3,3.7,2.3,6.5v17c0,2.8-0.8,5-2.3,6.5
		C1280.1,482.8,1277.9,483.5,1275.1,483.5z M1270.1,477.6h3.8c1.1,0,2-0.2,2.4-0.7c0.5-0.5,0.7-1.3,0.7-2.4v-16.3
		c0-1.1-0.2-2-0.7-2.4c-0.5-0.5-1.3-0.7-2.4-0.7h-3.8c-1.1,0-1.9,0.2-2.4,0.7c-0.5,0.5-0.7,1.3-0.7,2.4v16.3c0,1.1,0.2,2,0.7,2.4
		C1268.2,477.4,1269,477.6,1270.1,477.6z"/>
	<path fill="#333333" d="M1328.3,483.5h-17.6c-0.8,0-1.1-0.4-1.1-1.1v-32.2c0-0.7,0.4-1.1,1.1-1.1h4.5c0.8,0,1.1,0.4,1.1,1.1V477
		c0,0.4,0.2,0.6,0.6,0.6h11.3c0.7,0,1.1,0.4,1.1,1.2v3.6C1329.4,483.1,1329,483.5,1328.3,483.5z"/>
</g>
<g>
	<path fill="#333333" d="M462.1,116.7c-3.5-2.7-7.8-4-13-4c-5.1,0-9.5,1.3-13.1,4c-3.7,2.7-6.8,6.3-9.5,10.9L301.8,335.3H264v-0.1
		h-69.3c-11.9,0-22.9-2.2-33-6.6c-10.1-4.4-18.8-10.4-26.1-18.1c-7.3-7.7-13-16.8-17.1-27.5c-4.1-10.7-6.2-22.3-6.2-34.7
		c0-12.6,2.1-24.2,6.2-34.7c4.1-10.5,9.8-19.5,17.1-27c7.3-7.5,16-13.4,26.1-17.7c10.1-4.3,21.1-6.4,33-6.4h173.6l26.8-46.3H194.7
		c-18.5,0-35.6,3.1-51.3,9.3c-15.7,6.2-29.3,15-40.9,26.3c-11.6,11.3-20.6,25-27,41.1c-6.4,16.1-9.7,33.8-9.7,53.3
		c0,19.2,3.2,37.1,9.7,53.6c6.4,16.5,15.4,30.8,27,42.9c11.6,12,25.2,21.5,40.9,28.5c15.7,6.9,32.8,10.4,51.3,10.4H264v-0.3h10.2
		l-0.2,0.3h52.9L447.3,178l59.1,99.3H425l22.8,37.6h80.8l39.8,66.8h55.8l-152.9-254C468.7,123,465.6,119.3,462.1,116.7z"/>
	<path fill="#333333" d="M800.6,300.9c17.3-6.6,30.7-17.3,40.3-32.3c9.6-15,14.4-33.5,14.4-55.6c0-14.8-2.2-28.2-6.6-40.1
		c-4.4-11.9-10.7-22.1-19-30.5c-8.3-8.4-18.4-14.8-30.3-19.3c-11.9-4.5-25.4-6.8-40.5-6.8H500l29.6,46.3H759
		c16.1,0,28.5,4.2,37.4,12.6c8.9,8.4,13.3,21.2,13.3,38.5c0,17.3-4.3,30.5-12.8,39.6c-8.5,9.1-21.2,13.7-38,13.7H620.2l28.3,40.9
		h99.3l67.1,73.7h65.7L800.6,300.9z"/>
</g>
<circle fill="#B62B2A" cx="1358.7" cy="261.5" r="27"/>
<path fill="#333333" d="M1453.7,135.6c2.4,1.9,4.8,3.8,7.2,5.7c-0.2,0.3,0.1,0.4,0.3,0.5c2.7,2.6,5.1,5.5,7.2,8.7
	c14.9,22.3,10.8,52.7-9.6,70.1c-4.1,3.5-8.7,6.4-13.4,9.1c-10.7,6.3-22,11.2-33.6,15.6c-17,6.4-34.4,11.6-52.1,15.9
	c-0.3,0.1-0.6,0-0.8,0.3c-0.1-0.1-0.1-0.1-0.2-0.2c0.2-0.2,0.1-0.5,0.1-0.8c0.1-5.1,0.2-10.2,0.5-15.2c0.9-17.1,2.5-34,5.6-50.9
	c1.8-10,4.2-19.8,7.6-29.3c2-5.5,4.2-10.8,7.6-15.6c6.3-8.9,14.4-15.5,24.6-19.3c17-6.3,33.2-4.5,48.5,5.1
	C1453.4,135.5,1453.5,135.8,1453.7,135.6z M1407.6,200.5c11.2,9,27.7,7.2,36.7-4c9.1-11.3,7.3-27.7-4-36.8c-11.3-9-27.7-7.2-36.8,4
	C1394.5,175,1396.4,191.5,1407.6,200.5z"/>
<path fill="#B62B2A" d="M1516.6,193.8c-6.3-16-15.2-29.7-26.6-41.1c-5-5-10.4-9.5-16.3-13.5l-0.6,1c1.3,1.5,2.4,3.1,3.5,4.8
	c15.2,22.6,13.9,51.9-1.8,72.9c3.3,9.6,4.9,19.9,4.9,30.9c0,12.4-2.1,24-6.2,34.7c-4.1,10.7-9.9,19.9-17.3,27.6
	c-7.4,7.7-16.2,13.5-26.5,17.9c-10.2,4.4-21.4,6.4-33.6,6.4h-64.6c-11.9,0-22.9-2-33-6.4c-10.1-4.4-18.8-10.3-26.1-18
	c-7.3-7.7-13-16.8-17.2-27.5c-4.1-10.7-6.2-22.3-6.2-34.7c0-12.7,2.1-24.2,6.2-34.7c4.1-10.5,9.9-19.5,17.2-27
	c7.3-7.5,16-13.8,26.1-18c10.1-4.3,21.1-6.7,33-6.7h31.1c0.1,0,0.3-0.5,0.4-0.8c2-5.5,4.6-11.7,8.8-17.8
	c7.6-10.8,17.5-18.5,29.3-22.8c4.4-1.6,8.7-2.8,13.1-3.5c-5.9-0.7-11.9-1.1-18.1-1.1h-64.6c-18.5,0-35.6,3.2-51.3,9.4
	c-15.7,6.2-29.3,15-40.9,26.4c-11.6,11.3-20.6,25.1-27,41.1c-6.5,16.1-9.7,33.9-9.7,53.4c0,19.2,3.2,37.2,9.7,53.7
	c6.4,16.6,15.4,30.9,27,42.9c11.6,12.1,25.2,21.6,40.9,28.6c15.7,6.9,32.8,10.5,51.3,10.5h64.6c19,0,36.4-3.5,52.2-10.5
	c15.8-6.9,29.5-16.5,41.1-28.5c11.6-12.1,20.6-26.4,27-43c6.4-16.6,9.7-34.5,9.7-53.7C1526.1,227.4,1523,209.7,1516.6,193.8z"/>
</svg>
